<?xml version="1.0" encoding="UTF-8" standalone="no"?>
<!-- Created with Inkscape (http://www.inkscape.org/) -->

<svg
   xmlns:dc="http://purl.org/dc/elements/1.1/"
   xmlns:cc="http://creativecommons.org/ns#"
   xmlns:rdf="http://www.w3.org/1999/02/22-rdf-syntax-ns#"
   xmlns:svg="http://www.w3.org/2000/svg"
   xmlns="http://www.w3.org/2000/svg"
   xmlns:sodipodi="http://sodipodi.sourceforge.net/DTD/sodipodi-0.dtd"
   xmlns:inkscape="http://www.inkscape.org/namespaces/inkscape"
   width="42.886379mm"
   height="96.292007mm"
   viewBox="0 0 42.886379 96.292007"
   version="1.1"
   id="svg8"
   inkscape:version="0.92.2 5c3e80d, 2017-08-06"
   sodipodi:docname="Firma.svg">
  <defs
     id="defs2" />
  <sodipodi:namedview
     id="base"
     pagecolor="#ffffff"
     bordercolor="#666666"
     borderopacity="1.0"
     inkscape:pageopacity="0.0"
     inkscape:pageshadow="2"
     inkscape:zoom="0.35"
     inkscape:cx="-203.36129"
     inkscape:cy="-158.76981"
     inkscape:document-units="mm"
     inkscape:current-layer="layer1"
     showgrid="false"
     inkscape:snap-bbox="true"
     inkscape:snap-center="false"
     inkscape:snap-text-baseline="true"
     inkscape:window-width="1280"
     inkscape:window-height="700"
     inkscape:window-x="0"
     inkscape:window-y="1"
     inkscape:window-maximized="1"
     scale-x="100000" />
  <metadata
     id="metadata5">
    <rdf:RDF>
      <cc:Work
         rdf:about="">
        <dc:format>image/svg+xml</dc:format>
        <dc:type
           rdf:resource="http://purl.org/dc/dcmitype/StillImage" />
        <dc:title></dc:title>
      </cc:Work>
    </rdf:RDF>
  </metadata>
  <g
     inkscape:label="Capa 1"
     inkscape:groupmode="layer"
     id="layer1"
     transform="translate(-18.654222,-10.53348)">
    <flowRoot
       xml:space="preserve"
       id="flowRoot14"
       style="font-style:normal;font-weight:normal;font-size:40px;line-height:1.25;font-family:sans-serif;letter-spacing:0px;word-spacing:0px;fill:#000000;fill-opacity:1;stroke:none"
       transform="scale(0.26458333)"><flowRegion
         id="flowRegion16"><rect
           id="rect18"
           width="54.285713"
           height="60"
           x="68.571426"
           y="268.23398" /></flowRegion><flowPara
         id="flowPara20"></flowPara></flowRoot>    <flowRoot
       xml:space="preserve"
       id="flowRoot142"
       style="font-style:normal;font-weight:normal;font-size:40px;line-height:1.25;font-family:sans-serif;letter-spacing:0px;word-spacing:0px;fill:#000000;fill-opacity:1;stroke:none"
       transform="scale(0.26458333)"><flowRegion
         id="flowRegion144"><rect
           id="rect146"
           width="37.142857"
           height="97.14286"
           x="362.85715"
           y="159.66254" /></flowRegion><flowPara
         id="flowPara148"></flowPara></flowRoot>    <flowRoot
       xml:space="preserve"
       id="flowRoot150"
       style="font-style:normal;font-weight:normal;font-size:40px;line-height:1.25;font-family:sans-serif;letter-spacing:0px;word-spacing:0px;fill:#000000;fill-opacity:1;stroke:none"
       transform="scale(0.26458333)"><flowRegion
         id="flowRegion152"><rect
           id="rect154"
           width="60.576702"
           height="43.128876"
           x="128.57143"
           y="265.37683" /></flowRegion><flowPara
         id="flowPara156"></flowPara></flowRoot>    <flowRoot
       xml:space="preserve"
       id="flowRoot166"
       style="font-style:normal;font-weight:normal;font-size:40px;line-height:1.25;font-family:sans-serif;letter-spacing:0px;word-spacing:0px;fill:#000000;fill-opacity:1;stroke:none"
       transform="scale(0.26458333)"><flowRegion
         id="flowRegion168"><rect
           id="rect170"
           width="65.714287"
           height="74.285721"
           x="151.42857"
           y="191.09111" /></flowRegion><flowPara
         id="flowPara172"></flowPara></flowRoot>    <flowRoot
       xml:space="preserve"
       id="flowRoot174"
       style="font-style:normal;font-weight:normal;font-size:40px;line-height:1.25;font-family:sans-serif;letter-spacing:0px;word-spacing:0px;fill:#000000;fill-opacity:1;stroke:none"
       transform="scale(0.26458333)"><flowRegion
         id="flowRegion176"><rect
           id="rect178"
           width="37.142857"
           height="57.14286"
           x="91.428574"
           y="208.23398" /></flowRegion><flowPara
         id="flowPara180"></flowPara></flowRoot>    <flowRoot
       xml:space="preserve"
       id="flowRoot182"
       style="font-style:normal;font-weight:normal;font-size:40px;line-height:1.25;font-family:sans-serif;letter-spacing:0px;word-spacing:0px;fill:#000000;fill-opacity:1;stroke:none"
       transform="scale(0.26458333)"><flowRegion
         id="flowRegion184"><rect
           id="rect186"
           width="15.153701"
           height="87.935158"
           x="294.28571"
           y="314.58453" /></flowRegion><flowPara
         id="flowPara188"></flowPara></flowRoot>    <g
       id="g3947"
       transform="translate(-50.64881,-38.553571)">
      <text
         inkscape:transform-center-y="-15.375873"
         inkscape:transform-center-x="-3.7797619"
         transform="skewY(-41.584902)"
         id="text12"
         y="218.65645"
         x="81.536331"
         style="font-style:normal;font-variant:normal;font-weight:normal;font-stretch:normal;font-size:11.28888893px;line-height:1.25;font-family:'.Keyboard';-inkscape-font-specification:'.Keyboard';letter-spacing:0px;word-spacing:0px;fill:#000000;fill-opacity:1;stroke:none;stroke-width:0.26458332"
         xml:space="preserve"><tspan
           style="font-style:normal;font-variant:normal;font-weight:normal;font-stretch:normal;font-size:11.28888893px;font-family:'.Keyboard';-inkscape-font-specification:'.Keyboard';stroke-width:0.26458332"
           y="218.65645"
           x="81.536331"
           id="tspan10"
           sodipodi:role="line">RHAV</tspan></text>
      <path
         style="stroke-width:0.26458332"
         inkscape:connector-curvature="0"
         d="m 77.97581,99.14505 c -0.01635,1.53276 -0.01299,3.06568 -0.0127,4.59851 -0.151921,1.67457 0.293407,3.1827 0.976082,4.68738 0.672682,1.34749 1.582902,2.54673 2.45948,3.7623 0.714277,0.74095 1.307372,1.6067 2.061601,2.30621 0.446701,0.42231 0.954408,0.83479 1.505598,1.12378 0.307875,0.1999 0.153644,0.085 0.457915,0.35103 0,0 -1.907712,1.19149 -1.907712,1.19149 v 0 c -0.28974,-0.23458 -0.144616,-0.13051 -0.432501,-0.31617 -0.549781,-0.32359 -1.090351,-0.71762 -1.530083,-1.17417 -0.751856,-0.72244 -1.360395,-1.58714 -2.072397,-2.34932 -0.882486,-1.22941 -1.791427,-2.44624 -2.471851,-3.80567 -0.697193,-1.52976 -1.177816,-3.06421 -1.021649,-4.77028 2.65e-4,-1.52852 0.0037,-3.05712 -0.0127,-4.58557 0,0 2.00092,-1.01952 2.00092,-1.01952 z"
         id="path3901" />
      <path
         style="stroke-width:0.26458332"
         inkscape:connector-curvature="0"
         d="m 69.303112,107.404 c 0.04751,-3.60461 0.05254,-7.20965 0.06738,-10.814507 0.25122,-6.50542 1.442713,-12.92725 2.765621,-19.28672 0.957435,-5.33951 2.148934,-10.65671 3.738662,-15.84581 0.924954,-2.08993 1.471639,-4.36351 2.558897,-6.38255 0.847661,-1.36223 0.45925,-0.68861 1.173191,-2.01624 1.248037,-1.8396 2.772566,-3.10494 4.950817,-3.84043 0.724408,-0.15906 1.469864,-0.13871 2.20648,-0.11346 0.831625,1.03348 0.771109,2.64451 0.843804,3.89484 0.102542,1.7637 0.115297,3.18148 0.154948,4.97338 -0.129972,7.34627 -1.545958,14.57723 -2.510433,21.84067 -1.03315,6.40696 -1.627981,12.84588 -1.859537,19.32779 -0.112117,4.019857 -0.08435,8.041457 -0.0531,12.062147 0.130868,1.44367 -0.123711,2.92935 0.03866,4.37002 0.06024,0.53449 0.227084,1.05153 0.335587,1.57835 0.07932,1.05996 0.712798,1.87611 1.073271,2.84027 0.10573,0.54792 0.570595,0.77029 1.053484,0.90469 0.895913,0.24792 2.622449,-0.96301 -0.489847,0.63843 0.431175,-0.52634 0.995923,-0.92531 1.263782,-1.56351 0.238977,-1.38623 0.135305,-2.83793 0.130154,-4.2429 -0.0031,-2.98194 -0.01061,-5.96387 -0.02537,-8.94577 -0.01352,-1.3325 -0.01394,-2.66505 -0.03215,-3.9975 0.667924,-0.22499 1.307816,-0.56366 2.003771,-0.67497 0.148265,-0.0237 -0.02127,0.29631 0.197504,0.95267 0.266324,0.79897 0.686548,1.58996 0.999349,2.3755 0.926809,1.85218 1.549146,3.82754 2.336605,5.73456 0.256399,0.78304 0.777666,1.4512 1.04553,2.2256 -2.184514,0.96087 -1.981822,1.59428 -1.988579,0.64736 -0.0032,-0.44827 -0.05762,-0.66305 0.232116,-1.02555 0.386966,-0.34934 0.356055,-0.88537 0.612484,-1.29507 0.859927,-0.68144 2.45092,-1.94678 2.624555,-0.49668 0.03281,0.47672 0.01662,0.95566 0.005,1.43304 0.02151,0.16688 -0.07216,0.37018 0.05387,0.51024 0.03049,0.0339 0.0654,0.10604 0.106347,0.086 0.07428,-0.0364 0.217376,-0.23073 0.138499,-0.20587 -0.600097,0.18917 -1.165146,0.47544 -1.747719,0.71315 0.637146,-3.75491 1.052994,-7.54093 1.566143,-11.315 1.147299,-8.075417 2.921034,-16.024787 4.947531,-23.919057 0.461561,-1.53891 0.923131,-3.0778 1.384691,-4.61671 0,0 1.783,-0.84389 1.783,-0.84389 v 0 c -0.46195,1.53607 -0.92389,3.07215 -1.38584,4.60823 -2.00753,7.8688 -3.755039,15.79395 -4.854018,23.846957 -0.490511,3.76015 -0.899792,7.53159 -1.417307,11.28491 -0.430821,0.34667 -2.636723,2.80516 -2.585151,0.87038 0.0064,-0.47072 0.03039,-0.94165 0.0089,-1.41237 -0.0093,-0.1661 0.01199,-0.22219 -0.05185,-0.35036 -0.01921,-0.0386 -0.103526,-0.0857 -0.06792,-0.10993 3.172754,-2.15888 2.304,-1.35435 1.571972,-0.94179 -0.440457,0.23218 -0.204013,0.93401 -0.614286,1.29339 -1.298207,0.99573 1.686875,1.99166 -2.303484,2.32464 -0.214757,-0.78386 -0.772811,-1.4444 -1.001964,-2.22816 -0.769286,-1.91625 -1.377426,-3.89703 -2.329248,-5.7407 -0.111935,-0.28164 -1.391997,-3.27128 -1.268532,-3.38545 0.59359,-0.54887 1.335654,-0.9113 2.003483,-1.36695 -0.01791,1.34212 -0.01627,2.68435 -0.02561,4.02655 -0.0049,2.98006 7.93e-4,5.96022 0.03409,8.94013 0.01328,1.42462 0.113866,2.87787 -0.04831,4.29204 -0.230632,0.71024 -0.761862,1.10178 -1.230857,1.65759 -1.113774,0.71891 -2.078448,1.90158 -3.442224,1.48725 -0.5163,-0.16744 -1.048089,-0.51681 -1.161079,-1.08558 -0.335344,-0.98508 -0.998201,-1.80781 -1.06081,-2.88305 -0.109508,-0.54108 -0.290801,-1.06942 -0.354293,-1.6178 -0.166973,-1.4422 0.136959,-2.94124 -0.0051,-4.3872 -0.0051,-4.03598 0.0028,-8.07276 0.122713,-12.1073 0.242232,-6.499537 0.860907,-12.954177 1.912239,-19.375927 0.950304,-7.24202 2.371556,-14.45278 2.461266,-21.77934 -0.0576,-1.7825 -0.08286,-3.18 -0.207251,-4.93231 -0.07508,-1.05769 -0.02233,-2.69461 -0.751337,-3.57562 -0.71859,-0.0244 -1.448856,-0.0329 -2.144676,0.17464 -0.894202,0.34953 -0.620374,0.26926 1.020509,-0.70881 0.180906,-0.10784 -0.373632,0.20092 -0.53462,0.33671 -0.644874,0.54393 -1.097989,1.31528 -1.663769,1.93111 -0.710941,1.347 -0.315759,0.67296 -1.195612,2.01617 -1.127533,2.00459 -1.656247,4.29721 -2.62051,6.37604 -1.612567,5.19035 -2.841837,10.50381 -3.798154,15.85228 -1.315939,6.34415 -2.548166,12.74473 -2.762899,19.23775 0.0148,3.58197 0.01967,7.164127 0.06738,10.745857 0,0 -2.000919,1.01951 -2.000919,1.01951 z"
         id="path3903" />
    </g>
  </g>
</svg>
